<svg version="1.1" id="Layer_1" xmlns="http://www.w3.org/2000/svg" xmlns:xlink="http://www.w3.org/1999/xlink" x="0px" y="0px"
	 width="100%" viewBox="0 0 1024 1024" enable-background="new 0 0 1024 1024" xml:space="preserve">
<path fill="#000000" opacity="1.000000" stroke="none" 
	d="
M262.879517,602.080200 
	C269.459015,607.265015 276.046326,611.791443 283.417084,615.026062 
	C291.159943,618.423950 295.904419,616.602722 299.820221,609.054626 
	C302.308289,604.258606 303.249817,599.000122 304.535156,593.846924 
	C305.257233,590.951965 303.468933,589.118591 301.380798,587.579712 
	C281.668884,573.052734 264.726196,555.661621 249.020401,536.990967 
	C247.735168,535.463074 246.416519,533.940430 245.324646,532.276611 
	C239.673126,523.664734 241.625275,514.882385 250.519608,509.647003 
	C258.896210,504.716339 268.194366,501.912323 277.291107,498.710571 
	C290.158783,494.181458 303.118805,489.914917 316.031982,485.514648 
	C316.962860,485.197418 317.834015,484.704895 318.767242,484.278229 
	C318.739471,481.621002 316.635132,480.465942 315.281769,478.955597 
	C299.471069,461.311584 284.445465,443.063690 271.785065,422.976837 
	C268.674957,418.042358 265.724457,413.041901 264.438324,407.224060 
	C262.663025,399.193817 266.019287,392.751373 273.692566,389.649689 
	C280.598755,386.858093 287.966156,386.433472 295.205933,385.817993 
	C314.601318,384.169128 334.043762,383.148834 353.508179,382.632202 
	C358.791718,382.491974 359.446259,381.427277 357.041504,376.654663 
	C345.946960,354.635925 335.292694,332.411926 326.264069,309.454651 
	C323.851227,303.319427 321.006805,297.100922 322.341583,290.199554 
	C324.019653,281.523468 329.979584,276.956696 339.476532,276.667969 
	C351.690125,276.296661 363.658600,278.510681 375.666016,280.160828 
	C389.812500,282.104950 403.907806,284.420685 418.030884,286.537933 
	C418.629608,286.627716 419.284760,286.340790 420.002045,286.213684 
	C420.065582,283.162811 418.254059,281.069794 416.972717,278.822083 
	C402.329865,253.136642 394.604858,225.603470 394.638763,195.964340 
	C394.651703,184.652695 394.273682,173.320511 396.650452,162.153915 
	C397.065125,160.205734 397.495331,158.246201 398.124573,156.360718 
	C402.119568,144.389999 411.751740,139.080841 424.023712,142.377884 
	C462.426178,152.695145 495.095917,172.842346 523.294250,200.594177 
	C524.443848,201.725555 525.258850,203.298309 527.396118,203.812515 
	C529.473816,198.800552 528.739380,193.382629 529.548645,188.240128 
	C531.179932,177.873642 532.771301,167.531723 537.076477,157.871185 
	C538.352478,155.007935 539.987366,152.217300 541.911560,149.746918 
	C547.181824,142.980927 553.884216,141.145416 561.872986,144.085724 
	C568.550354,146.543335 574.125366,150.850021 579.443604,155.383957 
	C603.844421,176.186234 623.453125,200.767059 637.227417,229.815948 
	C638.556335,232.618469 640.617859,233.611603 643.206299,234.468079 
	C669.808655,243.270538 693.875549,256.423065 714.210999,275.962250 
	C725.692993,286.994629 735.647766,299.252533 743.582947,313.065308 
	C745.407776,316.241791 747.658203,318.546906 750.841553,320.299988 
	C761.797852,326.333557 772.574707,332.660034 781.620728,341.484711 
	C802.224243,361.584167 807.120483,386.012207 798.995300,412.635590 
	C790.941467,439.025360 772.042297,454.863129 744.746643,458.736328 
	C736.924622,459.846252 735.043518,462.788483 733.107300,469.259186 
	C728.422546,484.915253 722.618042,500.177704 711.624695,512.838440 
	C707.873230,517.158813 703.542297,520.744751 699.088501,524.245728 
	C697.811401,525.249634 696.158447,525.905090 695.331116,528.878723 
	C700.161438,533.510986 705.827454,538.194397 710.606323,543.654297 
	C734.451233,570.897644 749.533630,602.405823 754.314331,638.356323 
	C761.862976,695.121582 743.190674,743.164978 704.064880,783.870850 
	C699.131775,789.003113 696.950623,793.763000 697.927979,801.090759 
	C700.495361,820.339905 702.135437,839.713013 704.116882,859.039551 
	C704.269348,860.526611 704.247009,862.036621 704.230042,863.535156 
	C704.086060,876.257141 695.064514,883.061646 682.776855,879.723145 
	C675.961182,877.871399 669.764893,874.641296 663.733215,871.070190 
	C641.940552,858.167786 620.679810,844.408630 599.664673,830.301514 
	C592.641174,825.586609 585.778015,824.422791 577.630798,825.395935 
	C560.053894,827.495300 542.350464,826.683533 524.728333,825.932983 
	C510.125549,825.311035 495.538239,823.867981 480.999969,822.277771 
	C440.734467,817.873474 401.358856,810.244690 366.022766,788.830505 
	C363.460754,787.277954 360.718811,785.906860 358.467102,783.977051 
	C346.482422,773.705566 331.844910,768.581177 317.762085,762.206665 
	C278.552643,744.459106 247.785110,717.347900 228.582062,678.357971 
	C218.202042,657.282288 211.654327,635.019592 211.640503,611.212280 
	C211.637558,606.142395 212.703857,601.287415 214.473373,596.601074 
	C218.948532,584.749329 231.222809,580.306641 242.210709,586.609619 
	C249.613510,590.856079 255.740448,596.857666 262.879517,602.080200 
M486.375275,758.350403 
	C483.523773,758.161133 480.520721,758.425659 478.146515,755.823181 
	C484.101990,752.492004 489.870850,749.548584 495.356110,746.147766 
	C518.390930,731.866333 530.746460,710.611633 531.278137,684.009827 
	C531.712097,662.294861 522.341187,643.581787 505.451874,629.368835 
	C497.816101,622.943054 489.005798,617.996887 481.554108,611.288574 
	C468.501862,599.538391 457.761322,586.100159 451.761230,569.372070 
	C449.558563,563.231079 450.531616,558.867310 454.070953,557.303467 
	C459.586670,554.866333 461.938019,559.194580 464.398590,562.661011 
	C491.046448,600.202148 527.806641,621.106323 572.741699,628.445801 
	C576.989075,629.139587 581.395508,630.907166 585.981506,628.978210 
	C585.276184,626.135010 582.983032,624.825073 581.416992,622.985413 
	C578.933350,620.067871 576.121033,617.353210 574.934998,613.598999 
	C574.334717,611.699158 574.164062,609.684021 576.002930,608.073669 
	C577.879272,606.430603 579.330627,607.670288 580.965881,608.491882 
	C586.022400,611.032532 591.053894,613.639343 596.219116,615.942383 
	C600.543579,617.870422 602.319946,616.655884 602.587769,611.871277 
	C602.669678,610.407166 602.415100,608.886230 602.087585,607.442871 
	C596.942505,584.769775 583.909424,567.007568 567.186157,551.563416 
	C558.091919,543.164734 548.090088,536.005432 537.434143,529.718018 
	C533.763916,527.552429 531.110535,524.368958 532.462280,519.873962 
	C533.935669,514.974609 538.153015,514.297119 542.615051,514.730530 
	C543.763367,514.842041 544.898254,515.154846 546.022766,515.440186 
	C558.598938,518.631531 569.150024,525.605713 579.047913,533.589050 
	C601.803528,551.942993 618.959778,574.007202 624.992065,603.457031 
	C628.516724,620.664551 623.153076,634.288574 609.218628,644.614502 
	C597.182556,653.533630 583.367004,654.553162 569.149841,652.741394 
	C561.784607,651.802856 554.502258,650.214966 546.157104,648.739075 
	C559.294739,683.006042 552.806213,714.268982 533.476196,743.800537 
	C535.583923,744.812622 537.038574,745.558350 538.530334,746.220276 
	C560.278076,755.870728 576.093933,770.259705 577.887146,795.732849 
	C578.148254,799.441284 580.225342,800.045776 583.269470,799.747192 
	C591.657410,798.924500 599.157349,800.630920 606.412048,805.489319 
	C625.788330,818.465576 645.551086,830.864990 665.166443,843.484070 
	C668.050537,845.339539 670.885803,848.000671 674.167603,844.003418 
	C675.142517,842.815979 676.581238,844.388733 677.907715,843.703186 
	C677.716980,841.017761 677.611633,838.357483 677.326233,835.716675 
	C675.896973,822.488892 674.222107,809.284058 673.025208,796.035767 
	C672.117615,785.990540 674.295532,776.850464 682.542908,769.975525 
	C684.836426,768.063782 686.855774,765.804443 688.887207,763.599854 
	C725.068665,724.332764 740.443237,679.023193 727.526794,626.140930 
	C719.390686,592.829956 701.336609,565.591125 674.105896,544.522034 
	C670.234314,541.526489 666.459961,540.669434 661.648865,541.706665 
	C655.313599,543.072449 648.795654,543.654907 642.279541,543.115662 
	C630.833679,542.168335 619.502319,540.374146 608.232483,538.194336 
	C607.006836,537.957275 605.588684,537.793701 604.876770,535.922852 
	C609.124207,532.543152 614.398254,532.444214 619.368652,531.742493 
	C637.823181,529.137085 655.587830,524.489197 671.621826,514.606323 
	C675.335632,512.317261 679.271057,510.114899 681.530457,506.049103 
	C679.435303,503.890839 677.007874,503.833679 674.802368,503.284668 
	C637.520569,494.004425 612.728394,457.289917 614.586365,423.983093 
	C615.049133,415.688049 619.792175,411.811279 627.787964,413.886566 
	C630.994263,414.718811 634.147522,415.895844 637.177063,417.247253 
	C670.381775,432.058624 705.131836,436.535034 741.067932,432.621918 
	C754.518433,431.157288 766.302856,426.349518 773.235229,413.635345 
	C782.506226,396.632080 779.747314,375.466827 766.546692,361.211975 
	C757.381287,351.314697 745.802979,345.170746 733.677979,339.879578 
	C730.406738,338.452026 727.728088,336.828705 725.925720,333.382263 
	C696.457947,277.031921 647.539795,252.399948 586.251770,248.425980 
	C571.248474,247.453171 556.337952,248.998535 541.738403,252.952042 
	C538.000305,253.964325 534.846802,253.634384 532.366150,249.637772 
	C518.370300,227.088562 500.003967,208.609787 478.293182,193.520584 
	C463.901917,183.518494 448.698120,174.883469 431.894928,169.429718 
	C423.736023,166.781601 420.712952,168.686203 419.420746,177.140121 
	C416.810455,194.217010 418.682007,211.040985 422.989319,227.548752 
	C431.726898,261.035675 448.584106,289.164032 478.052094,308.690460 
	C481.850891,311.207703 483.624115,315.087891 482.233887,319.544800 
	C480.932281,323.717468 477.151581,324.292633 473.288025,324.393463 
	C462.845490,324.665924 454.446564,319.603241 446.222992,314.109772 
	C440.331848,310.174377 440.214233,310.130707 435.542297,315.811127 
	C424.843170,328.819763 414.978790,342.418152 406.055420,356.721100 
	C374.684113,407.005035 353.920349,461.404694 342.080597,519.393066 
	C337.256866,543.018860 333.735382,566.859436 329.305420,590.543701 
	C326.852570,603.657532 323.769196,616.661377 315.987610,627.885559 
	C309.779083,636.840698 301.299408,641.618286 290.168701,641.360779 
	C279.100830,641.104675 269.545715,636.559265 260.301270,631.106140 
	C254.257645,627.541077 248.806488,623.138977 243.391159,618.704163 
	C241.865845,617.455078 240.242538,616.742310 238.348312,617.706543 
	C236.622314,618.585266 236.335587,620.254333 236.365753,621.981934 
	C236.388962,623.310974 236.406799,624.656494 236.619003,625.963501 
	C241.566208,656.432251 255.790237,682.158081 277.133026,704.065002 
	C296.363007,723.803223 319.778931,736.856018 345.671753,745.731995 
	C349.773926,747.138184 353.925110,748.432678 357.204834,751.473022 
	C378.761292,771.456360 405.063202,781.773560 433.028778,788.696716 
	C453.901764,793.864136 475.239136,796.083191 496.529755,798.537048 
	C504.783447,799.488342 513.094788,799.959534 521.387390,800.542297 
	C524.058716,800.730042 527.290833,800.790771 528.701416,798.397766 
	C530.198669,795.857788 527.289429,793.984375 525.950562,792.008728 
	C525.114502,790.775024 523.883057,789.804199 523.080566,788.554016 
	C521.354431,785.865112 516.147644,783.947327 518.936462,780.210083 
	C521.563538,776.689575 525.372192,780.223206 528.363953,781.485718 
	C535.802551,784.624695 542.294250,789.344910 548.134033,794.862061 
	C550.204529,796.818176 552.112244,796.282837 554.050293,795.429382 
	C556.413513,794.388489 555.401917,792.441650 554.876282,790.682678 
	C553.160034,784.939514 549.934448,780.198303 545.557434,776.147339 
	C538.733276,769.831482 530.313416,766.764709 521.613831,764.297302 
	C510.375214,761.109680 498.740692,760.159607 486.375275,758.350403 
M356.665802,320.841797 
	C361.860748,331.982971 366.994720,343.153259 372.284515,354.249207 
	C374.081390,358.018402 377.689392,358.372040 379.731995,354.988556 
	C387.724609,341.749359 395.972931,328.688690 405.122040,316.204102 
	C407.373566,313.131744 405.610870,308.931915 401.886383,308.377747 
	C387.451111,306.229706 373.005463,304.140900 358.536804,302.233612 
	C352.987854,301.502167 350.294220,305.299866 352.369965,310.467255 
	C353.670319,313.704376 355.038574,316.914185 356.665802,320.841797 
M347.814453,408.017639 
	C347.216248,407.751129 346.622131,407.262054 346.019196,407.250916 
	C333.385681,407.017578 320.708771,406.999908 308.211670,408.761871 
	C300.810760,409.805328 295.794647,416.657013 301.276520,424.632935 
	C306.648163,432.448425 312.245300,440.081268 318.480713,447.240326 
	C322.582306,451.949371 326.240631,457.346527 334.168762,455.372040 
	C334.141968,455.411865 334.518127,455.044464 334.669128,454.600464 
	C339.377289,440.756989 343.805511,426.811890 349.600525,413.363373 
	C350.468384,411.349274 349.911682,409.841644 347.814453,408.017639 
M659.747498,473.750092 
	C664.991028,478.832581 671.065369,482.542755 678.185852,484.226257 
	C680.616089,484.800842 683.342468,485.945862 685.707825,483.630127 
	C688.401306,480.993225 691.172913,478.436035 694.062317,475.700562 
	C687.806213,466.114319 678.945618,460.171234 668.742432,456.026550 
	C663.927002,454.070435 658.813049,453.168152 653.607117,453.419983 
	C649.127014,453.636688 647.985168,455.642761 650.005371,459.646393 
	C652.489197,464.568756 655.652588,469.064056 659.747498,473.750092 
M316.501373,525.539429 
	C316.076263,520.971069 314.521515,516.738220 312.942596,512.049133 
	C307.981537,513.719238 303.453491,515.303040 298.886719,516.766174 
	C293.059418,518.633118 292.151520,525.218018 287.649200,528.419617 
	C286.641907,529.135864 287.574860,530.932434 288.503906,531.989685 
	C290.700928,534.490112 292.654266,537.291443 295.190186,539.384644 
	C298.188599,541.859741 301.788116,545.423035 305.780212,543.070679 
	C310.508362,540.284607 315.957275,537.268616 315.672729,530.218628 
	C315.620270,528.918518 316.078247,527.597778 316.501373,525.539429 
M585.283569,214.876648 
	C585.570312,220.158112 588.683533,219.181564 592.449951,218.089508 
	C590.672791,215.188187 589.931458,211.576965 585.283569,214.876648 
z"/>
<path fill="#000000" opacity="1.000000" stroke="none" 
	d="
M635.037720,321.977051 
	C648.977600,337.884979 651.066895,361.261322 640.345032,378.882446 
	C629.690002,396.393646 609.728271,399.433838 594.367126,385.884888 
	C576.644653,370.253235 575.501587,337.899475 592.076172,321.040863 
	C604.788330,308.110901 621.370483,308.372345 635.037720,321.977051 
M613.384155,343.093689 
	C615.456604,351.512817 621.956909,355.176941 627.717224,351.172974 
	C633.918274,346.862701 633.562500,335.285858 627.107178,331.321381 
	C623.143066,328.886871 617.769348,330.172974 615.334656,334.190094 
	C613.832336,336.668854 613.097412,339.364532 613.384155,343.093689 
z"/>
<path fill="#000000" opacity="1.000000" stroke="none" 
	d="
M740.402466,400.832550 
	C738.192444,399.231384 736.547791,397.642792 735.432312,395.517822 
	C733.565979,391.962341 732.382874,388.147827 734.980103,384.725586 
	C738.063293,380.662964 742.635315,380.723755 747.254822,381.668854 
	C751.426086,382.522278 754.247925,384.806915 754.940430,389.069122 
	C755.737732,393.975891 754.220093,398.431610 750.683960,401.777191 
	C747.408752,404.875916 743.906982,403.221924 740.402466,400.832550 
z"/>
</svg>